<?xml version="1.0" encoding="UTF-8"?>
<!-- Generator: Adobe Illustrator 15.1.0, SVG Export Plug-In . SVG Version: 6.00 Build 0)  -->
<!DOCTYPE svg PUBLIC "-//W3C//DTD SVG 1.1//EN" "http://www.w3.org/Graphics/SVG/1.1/DTD/svg11.dtd">
<svg version="1.1" id="svg15" xmlns:dc="http://purl.org/dc/elements/1.1/" xmlns:rdf="http://www.w3.org/1999/02/22-rdf-syntax-ns#" xmlns:cc="http://creativecommons.org/ns#" xmlns:svg="http://www.w3.org/2000/svg" xmlns="http://www.w3.org/2000/svg" xmlns:xlink="http://www.w3.org/1999/xlink" x="0px" y="0px" width="340.158px" height="123.457px" viewBox="0 93.245 340.158 123.457" enable-background="new 0 93.245 340.158 123.457" xml:space="preserve">
<g id="Layer1000">
	<path id="path2" fill="#EA570F" d="M170.492,200.28c-0.029,0.027-0.057,0.101-0.078,0.222c-0.023,0.12-0.089,0.684-0.199,1.688   c-0.109,1.005-0.164,1.808-0.164,2.408c0,0.25,0.029,0.528,0.088,0.836c0.018,0.046,0.024,0.098,0.024,0.156   c0,0.178-0.051,0.335-0.154,0.476c-0.103,0.141-0.234,0.211-0.396,0.211c-0.107,0-0.244-0.052-0.409-0.159   c-0.165-0.105-0.265-0.286-0.298-0.541c-0.031-0.256-0.049-0.588-0.049-0.997c0-0.559,0.065-1.392,0.196-2.497   c0.131-1.107,0.209-1.67,0.236-1.693c-0.093,0-0.459,0.023-1.1,0.073c-0.645,0.049-1.02,0.074-1.124,0.074   c-0.336,0-0.57-0.044-0.701-0.131s-0.196-0.223-0.196-0.41c0-0.166,0.068-0.293,0.208-0.382c0.139-0.089,0.492-0.133,1.059-0.133   c0.941,0,1.866-0.062,2.772-0.188c1.02-0.156,1.794-0.234,2.32-0.234c0.589,0,0.947,0.068,1.075,0.207   c0.127,0.14,0.19,0.278,0.19,0.416c0,0.316-0.141,0.476-0.422,0.476c-0.091,0-0.238-0.01-0.44-0.028   c-0.206-0.017-0.447-0.025-0.722-0.025C171.382,200.104,170.809,200.163,170.492,200.28L170.492,200.28z M174.472,203.839   c0.543-1.018,1.012-1.711,1.405-2.077c0.396-0.369,0.794-0.553,1.196-0.553c0.278,0,0.509,0.095,0.693,0.286   c0.187,0.192,0.32,0.69,0.405,1.496c0.037,0.382,0.082,0.691,0.138,0.926c0.056,0.236,0.117,0.444,0.186,0.627   c0.069,0.181,0.168,0.352,0.295,0.513c0.099,0.127,0.147,0.249,0.147,0.368c0,0.117-0.057,0.225-0.169,0.323   s-0.243,0.147-0.391,0.147c-0.291,0-0.549-0.159-0.775-0.476c-0.227-0.318-0.36-0.755-0.402-1.315   c-0.052-0.685-0.108-1.12-0.169-1.312c-0.061-0.189-0.161-0.284-0.302-0.284c-0.189,0-0.56,0.38-1.107,1.138   c-0.548,0.757-0.942,1.363-1.184,1.816c-0.151,0.344-0.269,0.566-0.349,0.669c-0.082,0.101-0.185,0.15-0.305,0.15   c-0.199,0-0.362-0.048-0.486-0.147c-0.124-0.097-0.186-0.235-0.186-0.417c0-0.087,0.043-0.363,0.132-0.829   c0.334-1.756,0.606-3.627,0.819-5.608c0.052-0.478,0.152-0.808,0.302-0.989s0.286-0.271,0.41-0.271   c0.173,0,0.323,0.066,0.451,0.201c0.127,0.134,0.192,0.319,0.192,0.559c0,0.367-0.045,0.789-0.134,1.267   c-0.087,0.478-0.253,1.24-0.494,2.287C174.645,202.964,174.538,203.467,174.472,203.839L174.472,203.839z M184.022,204.413   c0,0.34-0.286,0.747-0.859,1.22c-0.571,0.473-1.218,0.71-1.938,0.71c-0.554,0-0.989-0.174-1.306-0.522   c-0.318-0.349-0.476-0.834-0.476-1.456c0-0.916,0.323-1.775,0.972-2.576c0.648-0.803,1.34-1.202,2.075-1.202   c0.367,0,0.662,0.115,0.883,0.348c0.223,0.233,0.335,0.51,0.335,0.829c0,0.57-0.272,1.112-0.82,1.627   c-0.546,0.516-1.247,0.871-2.101,1.068c-0.098,0.022-0.146,0.081-0.146,0.176c0,0.158,0.069,0.307,0.208,0.449   c0.14,0.143,0.325,0.215,0.558,0.215c0.657,0,1.311-0.34,1.959-1.018c0.124-0.13,0.244-0.195,0.361-0.195   C183.926,204.085,184.022,204.193,184.022,204.413L184.022,204.413z M180.729,203.545c0.518-0.104,0.973-0.326,1.366-0.663   c0.396-0.337,0.592-0.643,0.592-0.918c0-0.107-0.03-0.197-0.091-0.271c-0.06-0.073-0.137-0.11-0.232-0.11   c-0.285,0-0.6,0.21-0.948,0.628C181.069,202.629,180.842,203.073,180.729,203.545L180.729,203.545z M193.695,202.111   c0.611,0.217,1.008,0.475,1.188,0.775c0.183,0.302,0.273,0.597,0.273,0.889c0,0.624-0.4,1.268-1.202,1.926   c-0.801,0.66-1.643,0.99-2.523,0.99c-0.491,0-0.735-0.149-0.735-0.447c0-0.491,0.342-0.735,1.025-0.735h0.241   c0.32,0,0.724-0.186,1.211-0.558s0.732-0.749,0.732-1.131c0-0.233-0.101-0.44-0.301-0.621c-0.199-0.182-0.465-0.273-0.798-0.273   c-0.027,0-0.156,0.052-0.389,0.152c-0.236,0.103-0.409,0.152-0.521,0.152c-0.307,0-0.508-0.037-0.6-0.112   c-0.094-0.075-0.141-0.228-0.141-0.457c0-0.159,0.333-0.375,1.002-0.646c0.378-0.151,0.759-0.409,1.137-0.774   c0.381-0.365,0.569-0.673,0.569-0.925c0-0.324-0.234-0.485-0.706-0.485c-0.441,0-0.875,0.049-1.3,0.147   c-0.426,0.097-0.66,0.22-0.707,0.361c-0.046,0.145-0.166,0.895-0.363,2.248c-0.196,1.355-0.294,2.138-0.294,2.347l-0.05,0.662   c-0.025,0.333-0.103,0.55-0.229,0.645c-0.129,0.098-0.273,0.146-0.438,0.146c-0.438,0-0.658-0.283-0.658-0.85   c0-0.089,0.028-0.246,0.084-0.476c0.144-0.593,0.284-1.417,0.42-2.475c0.136-1.057,0.203-1.624,0.203-1.707   c0-0.164-0.032-0.246-0.098-0.246l-0.134,0.011c-0.097,0.01-0.185-0.021-0.26-0.091s-0.124-0.138-0.147-0.199   c-0.021-0.063-0.033-0.119-0.033-0.171c0-0.325,0.454-0.632,1.363-0.923c0.91-0.292,1.866-0.438,2.866-0.438   c0.534,0,0.967,0.143,1.299,0.426c0.331,0.283,0.497,0.609,0.497,0.983c0,0.268-0.105,0.541-0.318,0.817   S194.26,201.679,193.695,202.111z M200.609,204.413c0,0.34-0.286,0.747-0.859,1.22c-0.571,0.473-1.218,0.71-1.938,0.71   c-0.553,0-0.988-0.174-1.306-0.522s-0.476-0.834-0.476-1.456c0-0.916,0.324-1.775,0.972-2.576c0.648-0.803,1.341-1.202,2.075-1.202   c0.367,0,0.662,0.115,0.884,0.348c0.223,0.233,0.335,0.51,0.335,0.829c0,0.57-0.273,1.112-0.821,1.627   c-0.546,0.516-1.246,0.871-2.101,1.068c-0.097,0.022-0.146,0.081-0.146,0.176c0,0.158,0.068,0.307,0.208,0.449   c0.139,0.143,0.324,0.215,0.558,0.215c0.656,0,1.31-0.34,1.958-1.018c0.124-0.13,0.244-0.195,0.362-0.195   C200.512,204.085,200.609,204.193,200.609,204.413z M197.316,203.545c0.518-0.104,0.974-0.326,1.367-0.663   c0.395-0.337,0.591-0.643,0.591-0.918c0-0.107-0.029-0.197-0.09-0.271c-0.061-0.073-0.138-0.11-0.233-0.11   c-0.284,0-0.6,0.21-0.948,0.628C197.656,202.629,197.428,203.073,197.316,203.545L197.316,203.545z M203.735,204.855   c-0.013-0.178-0.295-0.394-0.844-0.648c-0.674-0.323-1.104-0.603-1.29-0.836c-0.188-0.234-0.279-0.489-0.279-0.764   c0-0.58,0.323-1.086,0.973-1.52c0.65-0.434,1.257-0.649,1.819-0.649c0.553,0,0.829,0.241,0.829,0.722   c0,0.127-0.063,0.241-0.189,0.343c-0.125,0.101-0.232,0.153-0.321,0.153c-0.035,0-0.101-0.024-0.191-0.069   c-0.092-0.047-0.162-0.068-0.211-0.068c-0.291,0-0.611,0.097-0.961,0.293c-0.351,0.197-0.526,0.426-0.526,0.688   c0,0.128,0.062,0.25,0.187,0.37c0.125,0.119,0.378,0.269,0.762,0.449c0.564,0.268,0.938,0.511,1.117,0.726   c0.181,0.216,0.271,0.455,0.271,0.717c0,0.478-0.323,0.876-0.97,1.196c-0.646,0.318-1.372,0.478-2.177,0.478   c-0.593,0-0.889-0.215-0.889-0.644c0-0.156,0.062-0.29,0.188-0.402c0.124-0.11,0.263-0.166,0.417-0.166   c0.062,0,0.157,0.022,0.29,0.069c0.13,0.048,0.251,0.071,0.361,0.071c0.309,0,0.63-0.048,0.969-0.146   C203.405,205.12,203.629,205,203.735,204.855L203.735,204.855z M207.671,202.116c-0.029,0-0.121,0.365-0.276,1.094   c-0.156,0.73-0.233,1.173-0.233,1.325c0,0.27,0.028,0.456,0.086,0.563c0.057,0.105,0.15,0.159,0.281,0.159   c0.185,0,0.36-0.032,0.527-0.096c0.17-0.063,0.391-0.208,0.665-0.429c0.171-0.141,0.315-0.212,0.433-0.212   c0.096,0,0.171,0.027,0.228,0.081c0.059,0.054,0.087,0.117,0.087,0.189c0,0.288-0.232,0.613-0.696,0.979   c-0.466,0.364-0.957,0.547-1.473,0.547c-0.433,0-0.763-0.127-0.99-0.383c-0.226-0.255-0.34-0.622-0.34-1.1   c0-0.442,0.164-1.323,0.496-2.645c-0.21,0.023-0.355,0.033-0.438,0.033h-0.104c-0.148,0-0.303-0.049-0.458-0.146   c-0.154-0.099-0.233-0.257-0.233-0.473c0-0.274,0.156-0.412,0.468-0.412l1.05-0.038c0.138-0.396,0.283-0.915,0.436-1.557   c0.093-0.398,0.3-0.598,0.623-0.598c0.182,0,0.322,0.054,0.423,0.164c0.102,0.108,0.152,0.231,0.152,0.365   c0,0.052-0.14,0.558-0.417,1.516c1.04-0.09,1.611-0.137,1.713-0.137c0.173,0,0.288,0.024,0.344,0.076   c0.056,0.051,0.082,0.147,0.082,0.292c0,0.291-0.246,0.476-0.74,0.555L207.671,202.116z M216.073,203.879   c-0.082,0.759-0.122,1.367-0.122,1.825c0,0.18-0.056,0.341-0.163,0.481c-0.108,0.141-0.254,0.211-0.441,0.211   c-0.402,0-0.604-0.234-0.604-0.702c0-0.26,0.096-1.132,0.285-2.621c0.154-1.203,0.229-1.922,0.229-2.154   c0-0.265-0.011-0.416-0.034-0.451c-0.212-0.108-0.318-0.303-0.318-0.584c0-0.274,0.442-0.515,1.33-0.719   c0.887-0.204,1.646-0.307,2.277-0.307c0.738,0,1.328,0.152,1.767,0.456c0.438,0.305,0.657,0.715,0.657,1.232   c0,0.745-0.402,1.4-1.208,1.965c-0.804,0.564-1.782,0.965-2.935,1.199C216.373,203.8,216.132,203.855,216.073,203.879   L216.073,203.879z M216.51,200.193l-0.29,2.582c0.941-0.158,1.769-0.438,2.482-0.838s1.07-0.829,1.07-1.288   c0-0.547-0.432-0.819-1.296-0.819C217.879,199.83,217.222,199.95,216.51,200.193L216.51,200.193z M222.395,203.668l0.082-0.157   c0.396-0.796,0.822-1.441,1.277-1.937c0.458-0.496,0.903-0.744,1.339-0.744c0.333,0,0.606,0.092,0.817,0.276   c0.211,0.183,0.316,0.4,0.316,0.651c0,0.157-0.036,0.293-0.108,0.405s-0.171,0.17-0.3,0.17c-0.203,0-0.387-0.084-0.555-0.25   c-0.117-0.108-0.211-0.162-0.279-0.162c-0.245,0-0.655,0.38-1.231,1.142c-0.576,0.765-0.923,1.62-1.04,2.573   c-0.037,0.275-0.116,0.466-0.241,0.576c-0.124,0.109-0.292,0.164-0.505,0.164c-0.226,0-0.387-0.129-0.482-0.385   c-0.094-0.257-0.141-0.677-0.141-1.258c0-0.24,0.005-0.562,0.019-0.969c0.014-0.382,0.052-0.849,0.114-1.402   c0.015-0.144,0.026-0.258,0.033-0.34c0.03-0.319,0.063-0.539,0.101-0.66c0.038-0.118,0.125-0.23,0.263-0.335   c0.138-0.105,0.29-0.157,0.456-0.157c0.178,0,0.312,0.051,0.403,0.152c0.091,0.101,0.138,0.213,0.138,0.334   c0,0.153-0.074,0.472-0.222,0.956c-0.052,0.168-0.097,0.367-0.132,0.6L222.395,203.668z M229.084,198.808   c0,0.232-0.104,0.437-0.313,0.611c-0.209,0.176-0.392,0.263-0.546,0.263c-0.196,0-0.37-0.082-0.522-0.246   c-0.151-0.163-0.229-0.327-0.229-0.491c0-0.234,0.076-0.425,0.227-0.571c0.15-0.146,0.367-0.218,0.648-0.218   c0.22,0,0.396,0.064,0.532,0.194C229.016,198.479,229.084,198.633,229.084,198.808L229.084,198.808z M226.714,202.844v0.005   c0.105-0.597,0.157-0.937,0.157-1.021c0-0.241,0.054-0.444,0.159-0.608s0.254-0.246,0.443-0.246c0.224,0,0.397,0.053,0.521,0.157   c0.124,0.105,0.186,0.223,0.186,0.354c0,0.13-0.06,0.4-0.181,0.811l-0.03,0.107c-0.179,0.632-0.288,1.147-0.323,1.546   c-0.037,0.398-0.054,0.722-0.054,0.967c0,0.199,0.034,0.466,0.103,0.801c0.01,0.059,0.015,0.106,0.015,0.146   c0,0.075-0.072,0.178-0.214,0.305c-0.143,0.128-0.295,0.191-0.459,0.191c-0.431,0-0.646-0.327-0.646-0.982   c0-0.556,0.078-1.232,0.234-2.031C226.658,203.167,226.686,202.999,226.714,202.844L226.714,202.844z M233.374,205.385   c-0.157-0.295-0.271-0.845-0.344-1.648c-0.071-0.838-0.232-1.256-0.48-1.256c-0.236,0-0.644,0.436-1.223,1.308   c-0.578,0.871-0.936,1.515-1.069,1.93c-0.03,0.126-0.085,0.228-0.165,0.311c-0.079,0.082-0.159,0.122-0.238,0.122   c-0.496,0-0.745-0.227-0.745-0.682c0-0.154,0.048-0.505,0.147-1.051c0.127-0.707,0.19-1.569,0.19-2.591   c0-0.154,0.067-0.318,0.201-0.493c0.134-0.176,0.276-0.263,0.427-0.263c0.191,0,0.335,0.047,0.438,0.143s0.152,0.347,0.152,0.755   c0,0.312-0.094,0.913-0.279,1.807c0.71-1.662,1.501-2.493,2.375-2.493c0.759,0,1.204,0.597,1.335,1.791   c0.131,1.218,0.281,1.826,0.451,1.826c0.075,0,0.162-0.018,0.259-0.049c0.119-0.04,0.212-0.059,0.282-0.059   c0.155,0,0.234,0.09,0.234,0.274c0,0.166-0.107,0.344-0.323,0.532c-0.217,0.188-0.487,0.282-0.816,0.282   c-0.378,0-0.649-0.164-0.813-0.496H233.374z M237.898,202.116c-0.028,0-0.121,0.365-0.276,1.094   c-0.156,0.73-0.233,1.173-0.233,1.325c0,0.27,0.029,0.456,0.086,0.563c0.057,0.105,0.15,0.159,0.281,0.159   c0.185,0,0.36-0.032,0.527-0.096c0.17-0.063,0.391-0.208,0.665-0.429c0.172-0.141,0.315-0.212,0.433-0.212   c0.096,0,0.171,0.027,0.228,0.081c0.059,0.054,0.088,0.117,0.088,0.189c0,0.288-0.233,0.613-0.697,0.979   c-0.466,0.364-0.957,0.547-1.473,0.547c-0.432,0-0.762-0.127-0.99-0.383c-0.226-0.255-0.34-0.622-0.34-1.1   c0-0.442,0.164-1.323,0.496-2.645c-0.21,0.023-0.355,0.033-0.438,0.033h-0.104c-0.149,0-0.303-0.049-0.459-0.146   c-0.154-0.099-0.232-0.257-0.232-0.473c0-0.274,0.155-0.412,0.467-0.412l1.051-0.038c0.137-0.396,0.282-0.915,0.435-1.557   c0.093-0.398,0.301-0.598,0.624-0.598c0.181,0,0.321,0.054,0.422,0.164c0.102,0.108,0.152,0.231,0.152,0.365   c0,0.052-0.139,0.558-0.417,1.516c1.04-0.09,1.611-0.137,1.714-0.137c0.172,0,0.288,0.024,0.343,0.076   c0.056,0.051,0.082,0.147,0.082,0.292c0,0.291-0.246,0.476-0.74,0.555L237.898,202.116z M243.307,198.808   c0,0.232-0.104,0.437-0.313,0.611c-0.209,0.176-0.392,0.263-0.546,0.263c-0.196,0-0.37-0.082-0.522-0.246   c-0.151-0.163-0.228-0.327-0.228-0.491c0-0.234,0.075-0.425,0.226-0.571c0.151-0.146,0.367-0.218,0.648-0.218   c0.22,0,0.396,0.064,0.532,0.194C243.24,198.479,243.307,198.633,243.307,198.808L243.307,198.808z M240.937,202.844v0.005   c0.105-0.597,0.157-0.937,0.157-1.021c0-0.241,0.054-0.444,0.159-0.608s0.255-0.246,0.443-0.246c0.224,0,0.397,0.053,0.521,0.157   c0.124,0.105,0.186,0.223,0.186,0.354c0,0.13-0.06,0.4-0.181,0.811l-0.03,0.107c-0.179,0.632-0.288,1.147-0.323,1.546   c-0.036,0.398-0.054,0.722-0.054,0.967c0,0.199,0.034,0.466,0.103,0.801c0.01,0.059,0.015,0.106,0.015,0.146   c0,0.075-0.071,0.178-0.214,0.305c-0.143,0.128-0.295,0.191-0.459,0.191c-0.431,0-0.646-0.327-0.646-0.982   c0-0.556,0.078-1.232,0.234-2.031C240.882,203.167,240.91,202.999,240.937,202.844L240.937,202.844z M247.597,205.385   c-0.157-0.295-0.271-0.845-0.344-1.648c-0.071-0.838-0.232-1.256-0.48-1.256c-0.236,0-0.644,0.436-1.223,1.308   c-0.578,0.871-0.935,1.515-1.068,1.93c-0.031,0.126-0.086,0.228-0.166,0.311c-0.079,0.082-0.159,0.122-0.238,0.122   c-0.496,0-0.745-0.227-0.745-0.682c0-0.154,0.048-0.505,0.147-1.051c0.127-0.707,0.19-1.569,0.19-2.591   c0-0.154,0.067-0.318,0.201-0.493c0.134-0.176,0.276-0.263,0.428-0.263c0.19,0,0.334,0.047,0.437,0.143s0.152,0.347,0.152,0.755   c0,0.312-0.094,0.913-0.279,1.807c0.71-1.662,1.501-2.493,2.375-2.493c0.759,0,1.204,0.597,1.335,1.791   c0.131,1.218,0.281,1.826,0.451,1.826c0.075,0,0.162-0.018,0.26-0.049c0.118-0.04,0.211-0.059,0.281-0.059   c0.155,0,0.234,0.09,0.234,0.274c0,0.166-0.107,0.344-0.323,0.532c-0.217,0.188-0.487,0.282-0.815,0.282   c-0.379,0-0.65-0.164-0.814-0.496H247.597z M253.482,204.598c-0.363,0.411-0.786,0.746-1.269,1.011   c-0.483,0.263-0.899,0.394-1.249,0.394c-0.347,0-0.616-0.101-0.808-0.303c-0.191-0.203-0.286-0.483-0.286-0.84   c0-0.508,0.19-1.072,0.576-1.693c0.384-0.622,0.918-1.163,1.6-1.622c0.682-0.46,1.297-0.689,1.843-0.689   c0.301,0,0.561,0.082,0.78,0.246c0.052,0.038,0.098,0.072,0.138,0.097c0.079,0.056,0.15,0.157,0.218,0.307   c0.066,0.149,0.101,0.27,0.101,0.362c0,0.059-0.063,0.256-0.187,0.593c-0.127,0.35-0.216,0.69-0.268,1.019   c-0.051,0.328-0.151,1.149-0.302,2.461c-0.134,1.143-0.452,1.977-0.956,2.503c-0.505,0.527-1.064,0.79-1.679,0.79   c-0.645,0-1.271-0.216-1.878-0.649c-0.606-0.435-0.91-0.791-0.91-1.072c0-0.25,0.121-0.374,0.364-0.374   c0.094,0,0.288,0.096,0.578,0.285c0.746,0.49,1.387,0.737,1.919,0.737c0.405,0,0.746-0.255,1.021-0.765   C253.103,206.885,253.321,205.954,253.482,204.598L253.482,204.598z M253.599,201.872c-0.241,0-0.56,0.144-0.952,0.434   s-0.755,0.681-1.09,1.171c-0.333,0.491-0.499,0.898-0.499,1.222c0,0.171,0.062,0.254,0.186,0.254c0.423,0,0.841-0.171,1.257-0.512   c0.415-0.342,0.752-0.735,1.008-1.18c0.257-0.445,0.386-0.782,0.386-1.012c0-0.114-0.03-0.206-0.089-0.274   C253.747,201.905,253.678,201.872,253.599,201.872z M264.535,200.826c0-0.324-0.084-0.549-0.252-0.675   c-0.165-0.126-0.412-0.189-0.735-0.189c-0.553,0-1.066,0.134-1.539,0.406c-0.473,0.27-0.709,0.565-0.709,0.889   c0,0.206,0.089,0.382,0.269,0.528c0.178,0.146,0.638,0.326,1.38,0.542c0.779,0.227,1.357,0.475,1.735,0.744   c0.377,0.27,0.566,0.595,0.566,0.974c0,0.631-0.48,1.211-1.442,1.735c-0.962,0.525-1.962,0.787-2.998,0.787   c-0.337,0-0.606-0.07-0.812-0.211c-0.202-0.141-0.303-0.313-0.303-0.52c0-0.164,0.045-0.316,0.138-0.457   c0.092-0.141,0.2-0.211,0.328-0.211c0.078,0,0.15,0.013,0.216,0.04c0.344,0.147,0.665,0.221,0.962,0.221   c0.511,0,1.083-0.144,1.72-0.43c0.637-0.287,0.955-0.566,0.955-0.842c0-0.115-0.078-0.225-0.237-0.331   c-0.159-0.105-0.483-0.24-0.97-0.4c-0.709-0.231-1.243-0.424-1.602-0.573c-0.359-0.15-0.63-0.349-0.816-0.592   c-0.185-0.244-0.276-0.537-0.276-0.881c0-0.613,0.357-1.181,1.07-1.708c0.712-0.526,1.55-0.791,2.513-0.791   c0.553,0,0.988,0.11,1.307,0.33c0.32,0.219,0.479,0.469,0.479,0.75C265.481,200.539,265.166,200.826,264.535,200.826   L264.535,200.826z M270.88,203.614c-0.219,0.766-0.636,1.41-1.249,1.935c-0.613,0.526-1.227,0.789-1.838,0.789   c-0.484,0-0.885-0.178-1.197-0.533c-0.315-0.354-0.472-0.79-0.472-1.308c0-0.845,0.289-1.676,0.863-2.493   c0.576-0.818,1.274-1.228,2.096-1.228c0.56,0,1.014,0.208,1.36,0.621c0.347,0.414,0.519,0.906,0.519,1.479   c0,0.25-0.026,0.493-0.082,0.732V203.614z M268.327,202.062c-0.229,0.203-0.452,0.526-0.672,0.972   c-0.219,0.446-0.328,0.892-0.328,1.341c0,0.271,0.049,0.495,0.149,0.671c0.099,0.178,0.231,0.265,0.396,0.265   c0.405,0,0.827-0.239,1.267-0.72c0.437-0.48,0.656-1.021,0.656-1.62c0-0.337-0.07-0.615-0.213-0.832   c-0.143-0.218-0.342-0.327-0.597-0.327c-0.242,0-0.46,0.084-0.653,0.251H268.327z M273.701,197.793c0.354,0,0.531,0.192,0.531,0.58   c0,0.176-0.025,0.366-0.074,0.571c-0.05,0.204-0.184,0.71-0.401,1.519c-0.161,0.585-0.283,1.225-0.367,1.917   c-0.082,0.691-0.124,1.232-0.124,1.621c0,0.415,0.03,0.909,0.092,1.482c0.018,0.154,0.025,0.25,0.025,0.29   c0,0.195-0.072,0.363-0.216,0.504c-0.145,0.141-0.302,0.211-0.471,0.211c-0.233,0-0.397-0.108-0.491-0.328   c-0.096-0.219-0.142-0.595-0.142-1.129c0-1.147,0.134-2.501,0.405-4.059c0.27-1.557,0.49-2.477,0.661-2.758   C273.302,197.933,273.491,197.793,273.701,197.793L273.701,197.793z M278.218,204.305c-0.315,0.571-0.679,1.027-1.093,1.363   c-0.413,0.337-0.834,0.507-1.26,0.507c-0.251,0-0.506-0.133-0.762-0.397c-0.258-0.267-0.386-0.673-0.386-1.223   c0-0.389,0.098-0.977,0.294-1.763c0.17-0.646,0.256-1.139,0.256-1.476c0.131-0.276,0.335-0.414,0.613-0.414   c0.188,0,0.342,0.063,0.454,0.189s0.169,0.253,0.169,0.381c0,0.232-0.082,0.563-0.245,0.991c-0.095,0.255-0.197,0.616-0.306,1.082   c-0.111,0.466-0.166,0.766-0.166,0.896c0,0.436,0.09,0.651,0.27,0.651c0.285,0,0.67-0.272,1.154-0.819   c0.484-0.546,0.801-1.105,0.946-1.679c0.147-0.559,0.278-0.926,0.394-1.099c0.114-0.174,0.276-0.259,0.485-0.259   c0.341,0,0.511,0.188,0.511,0.567c0,0.057-0.028,0.168-0.083,0.335c-0.194,0.578-0.29,1.231-0.29,1.958   c0,0.85,0.145,1.358,0.433,1.526c0.094,0.056,0.143,0.124,0.143,0.206c0,0.117-0.084,0.229-0.252,0.333   c-0.166,0.105-0.325,0.158-0.476,0.158c-0.258,0-0.457-0.183-0.597-0.548C278.286,205.41,278.218,204.921,278.218,204.305   L278.218,204.305z M282.873,202.116c-0.029,0-0.121,0.365-0.276,1.094c-0.156,0.73-0.233,1.173-0.233,1.325   c0,0.27,0.028,0.456,0.086,0.563c0.057,0.105,0.15,0.159,0.281,0.159c0.185,0,0.36-0.032,0.527-0.096   c0.169-0.063,0.391-0.208,0.665-0.429c0.171-0.141,0.315-0.212,0.433-0.212c0.096,0,0.171,0.027,0.228,0.081   c0.059,0.054,0.087,0.117,0.087,0.189c0,0.288-0.232,0.613-0.697,0.979c-0.465,0.364-0.956,0.547-1.472,0.547   c-0.433,0-0.763-0.127-0.99-0.383c-0.227-0.255-0.34-0.622-0.34-1.1c0-0.442,0.164-1.323,0.496-2.645   c-0.21,0.023-0.355,0.033-0.438,0.033h-0.104c-0.148,0-0.303-0.049-0.459-0.146c-0.153-0.099-0.232-0.257-0.232-0.473   c0-0.274,0.156-0.412,0.467-0.412l1.051-0.038c0.138-0.396,0.283-0.915,0.436-1.557c0.092-0.398,0.3-0.598,0.623-0.598   c0.182,0,0.321,0.054,0.423,0.164c0.102,0.108,0.151,0.231,0.151,0.365c0,0.052-0.139,0.558-0.417,1.516   c1.041-0.09,1.612-0.137,1.714-0.137c0.173,0,0.288,0.024,0.344,0.076c0.056,0.051,0.082,0.147,0.082,0.292   c0,0.291-0.246,0.476-0.74,0.555L282.873,202.116z"/>
    <path id="path4" fill="#EA570F" d="M288.282,198.808c0,0.232-0.104,0.437-0.313,0.611c-0.21,0.176-0.393,0.263-0.546,0.263   c-0.196,0-0.37-0.082-0.523-0.246c-0.15-0.163-0.228-0.327-0.228-0.491c0-0.234,0.075-0.425,0.227-0.571   c0.15-0.146,0.366-0.218,0.648-0.218c0.219,0,0.395,0.064,0.532,0.194C288.215,198.479,288.281,198.633,288.282,198.808   L288.282,198.808z M285.911,202.844v0.005c0.106-0.597,0.158-0.937,0.158-1.021c0-0.241,0.054-0.444,0.159-0.608   c0.104-0.164,0.254-0.246,0.443-0.246c0.223,0,0.397,0.054,0.521,0.157c0.123,0.105,0.186,0.223,0.186,0.354   s-0.061,0.4-0.181,0.811l-0.03,0.107c-0.18,0.632-0.288,1.147-0.323,1.546c-0.037,0.398-0.054,0.722-0.054,0.967   c0,0.199,0.033,0.466,0.103,0.801c0.01,0.059,0.015,0.106,0.015,0.146c0,0.075-0.072,0.178-0.215,0.305   c-0.142,0.128-0.294,0.191-0.458,0.191c-0.431,0-0.647-0.327-0.647-0.982c0-0.556,0.079-1.232,0.234-2.031   C285.856,203.167,285.885,202.999,285.911,202.844L285.911,202.844z M293.088,203.614c-0.22,0.766-0.637,1.41-1.25,1.935   c-0.613,0.526-1.226,0.789-1.838,0.789c-0.483,0-0.884-0.178-1.197-0.532c-0.314-0.355-0.471-0.791-0.471-1.309   c0-0.845,0.288-1.676,0.862-2.493c0.577-0.818,1.275-1.228,2.096-1.228c0.56,0,1.014,0.208,1.36,0.621   c0.347,0.414,0.52,0.906,0.52,1.479c0,0.25-0.027,0.493-0.082,0.732V203.614z M290.535,202.062   c-0.229,0.203-0.452,0.526-0.672,0.972c-0.22,0.446-0.328,0.892-0.328,1.341c0,0.271,0.048,0.495,0.148,0.671   c0.099,0.178,0.231,0.266,0.396,0.266c0.405,0,0.827-0.24,1.267-0.721c0.438-0.48,0.656-1.021,0.656-1.62   c0-0.337-0.07-0.614-0.212-0.832c-0.143-0.218-0.342-0.327-0.597-0.327c-0.243,0-0.461,0.084-0.653,0.251H290.535z    M298.235,205.385c-0.157-0.295-0.271-0.845-0.343-1.648c-0.072-0.838-0.233-1.256-0.481-1.256c-0.236,0-0.643,0.436-1.223,1.308   c-0.578,0.871-0.935,1.515-1.068,1.93c-0.03,0.126-0.086,0.228-0.166,0.311c-0.079,0.082-0.159,0.122-0.238,0.122   c-0.496,0-0.745-0.227-0.745-0.682c0-0.154,0.049-0.505,0.147-1.051c0.127-0.707,0.19-1.569,0.19-2.591   c0-0.154,0.067-0.318,0.201-0.493c0.134-0.176,0.276-0.263,0.428-0.263c0.19,0,0.334,0.047,0.437,0.143s0.152,0.347,0.152,0.755   c0,0.312-0.094,0.913-0.279,1.807c0.71-1.662,1.501-2.493,2.375-2.493c0.759,0,1.205,0.597,1.335,1.791   c0.131,1.218,0.282,1.826,0.451,1.826c0.075,0,0.162-0.018,0.26-0.049c0.119-0.04,0.211-0.059,0.281-0.059   c0.156,0,0.234,0.09,0.234,0.274c0,0.166-0.106,0.344-0.323,0.532c-0.216,0.188-0.487,0.282-0.815,0.282   c-0.379,0-0.65-0.164-0.814-0.496H298.235z M303.07,204.855c-0.014-0.178-0.295-0.394-0.845-0.648   c-0.673-0.323-1.104-0.603-1.29-0.836c-0.187-0.234-0.279-0.489-0.279-0.764c0-0.58,0.323-1.086,0.974-1.52   c0.649-0.434,1.256-0.649,1.819-0.649c0.553,0,0.829,0.241,0.829,0.722c0,0.127-0.064,0.241-0.189,0.343   c-0.126,0.101-0.233,0.153-0.321,0.153c-0.036,0-0.101-0.024-0.191-0.069c-0.092-0.047-0.162-0.068-0.211-0.068   c-0.292,0-0.612,0.097-0.962,0.293c-0.35,0.197-0.525,0.426-0.525,0.688c0,0.128,0.062,0.25,0.186,0.37   c0.126,0.119,0.379,0.269,0.762,0.449c0.564,0.268,0.938,0.511,1.117,0.726c0.182,0.216,0.271,0.455,0.271,0.717   c0,0.478-0.323,0.876-0.97,1.196c-0.646,0.318-1.372,0.478-2.176,0.478c-0.593,0-0.89-0.215-0.89-0.644   c0-0.156,0.063-0.29,0.188-0.402c0.124-0.11,0.264-0.166,0.417-0.166c0.063,0,0.158,0.022,0.29,0.069   c0.131,0.048,0.251,0.071,0.361,0.071c0.309,0,0.631-0.048,0.969-0.146C302.74,205.12,302.963,205,303.07,204.855L303.07,204.855z"/>
</g>
    <path id="path7" fill="#EA570F" d="M128.612,131.994c3.451,0,6.302,1.107,8.546,3.329c2.244,2.221,3.364,5.036,3.364,8.447  c0,2.617-0.665,5.089-1.988,7.403c-1.329,2.314-3.096,4.092-5.299,5.334c-2.204,1.241-4.733,1.859-7.597,1.859  c-3.573,0-6.43-1.061-8.563-3.177c-2.14-2.116-3.206-4.903-3.206-8.359c0-3.93,1.276-7.305,3.83-10.127  C120.544,133.562,124.181,131.994,128.612,131.994z M128.426,136.436c-1.802,0-3.445,0.437-4.938,1.306  c-1.487,0.874-2.688,2.122-3.598,3.76c-0.915,1.633-1.369,3.323-1.369,5.061c0,2.063,0.635,3.813,1.9,5.247  c1.265,1.434,3.084,2.15,5.456,2.15c2.746,0,5.084-0.968,7.008-2.902c1.918-1.936,2.879-4.285,2.879-7.055  c0-2.291-0.676-4.121-2.028-5.497C132.384,137.124,130.617,136.436,128.426,136.436L128.426,136.436z M146.497,132.624h4.711  l-2.833,20.776h7.812l-0.549,4.337h-12.568L146.497,132.624z M173.378,131.994c3.451,0,6.302,1.107,8.546,3.329  c2.244,2.221,3.364,5.036,3.364,8.447c0,2.617-0.665,5.089-1.988,7.403c-1.329,2.314-3.096,4.092-5.299,5.334  c-2.204,1.241-4.733,1.859-7.597,1.859c-3.573,0-6.43-1.061-8.563-3.177c-2.14-2.116-3.206-4.903-3.206-8.359  c0-3.93,1.276-7.305,3.83-10.127C165.309,133.562,168.947,131.994,173.378,131.994L173.378,131.994z M173.191,136.436  c-1.802,0-3.445,0.437-4.938,1.306c-1.487,0.874-2.688,2.122-3.598,3.76c-0.915,1.633-1.369,3.323-1.369,5.061  c0,2.063,0.635,3.813,1.9,5.247c1.265,1.434,3.084,2.15,5.456,2.15c2.746,0,5.084-0.968,7.008-2.902  c1.918-1.936,2.879-4.285,2.879-7.055c0-2.291-0.676-4.121-2.028-5.497C177.149,137.124,175.383,136.436,173.191,136.436  L173.191,136.436z M191.508,132.624h4.354c2.688,0,4.582,0.233,5.679,0.699c1.363,0.583,2.396,1.388,3.089,2.419  c0.694,1.032,1.044,2.257,1.044,3.667c0,1.743-0.519,3.235-1.551,4.483c-1.037,1.247-2.6,2.122-4.692,2.611l5.485,11.233h-4.879  l-5.347-10.947h-0.402l-1.492,10.947h-4.716L191.508,132.624z M194.854,142.662c2.547-0.012,4.208-0.273,4.979-0.793  c0.77-0.513,1.154-1.288,1.154-2.32c0-0.588-0.152-1.084-0.461-1.48c-0.31-0.396-0.758-0.676-1.341-0.833  c-0.583-0.158-1.772-0.239-3.557-0.239L194.854,142.662z"/>
    <path id="path9" fill="#EA570F" d="M119.597,168.337h3.976l6.261,25.114h-4.576l-1.335-5.352h-9.939l-2.862,5.352h-5.072  L119.597,168.337z M122.78,183.657l-2.017-8.231l-4.401,8.231H122.78z M136.923,168.337h3.923c2.391,0,4.163,0.257,5.323,0.77  c1.16,0.514,2.093,1.306,2.804,2.391c0.711,1.078,1.066,2.244,1.066,3.497c0,1.044-0.25,2.035-0.752,2.962  c-0.507,0.927-1.229,1.702-2.18,2.332c2.232,1.557,3.352,3.632,3.352,6.214c0,1.341-0.355,2.571-1.072,3.685  c-0.711,1.119-1.592,1.941-2.641,2.472c-1.05,0.531-2.571,0.793-4.554,0.793h-8.697L136.923,168.337z M140.315,178.305h0.852  c1.271,0,2.134-0.093,2.588-0.279c0.455-0.187,0.84-0.537,1.154-1.05c0.321-0.507,0.479-1.072,0.479-1.696  c0-0.583-0.141-1.078-0.42-1.498c-0.285-0.42-0.653-0.705-1.107-0.852c-0.455-0.146-1.382-0.222-2.781-0.222L140.315,178.305z   M138.858,189.009l2.845,0.105c1.435,0,2.472-0.28,3.125-0.84c0.652-0.56,0.979-1.323,0.979-2.297c0-0.705-0.204-1.341-0.606-1.9  s-0.938-0.95-1.609-1.178c-0.67-0.232-1.953-0.35-3.854-0.361L138.858,189.009z M168.77,167.708c3.451,0,6.302,1.107,8.546,3.328  c2.244,2.222,3.364,5.037,3.364,8.447c0,2.618-0.665,5.089-1.988,7.403c-1.329,2.314-3.096,4.093-5.299,5.335  c-2.204,1.241-4.734,1.859-7.597,1.859c-3.573,0-6.43-1.062-8.563-3.178c-2.14-2.116-3.206-4.902-3.206-8.359  c0-3.93,1.276-7.305,3.83-10.126C160.702,169.275,164.34,167.708,168.77,167.708z M168.584,172.149  c-1.802,0-3.445,0.438-4.938,1.307c-1.487,0.874-2.688,2.122-3.598,3.76c-0.915,1.632-1.37,3.322-1.37,5.061  c0,2.063,0.636,3.813,1.901,5.246c1.265,1.435,3.084,2.151,5.456,2.151c2.746,0,5.083-0.968,7.008-2.903  c1.917-1.936,2.879-4.285,2.879-7.054c0-2.291-0.676-4.122-2.028-5.497C172.542,172.838,170.775,172.149,168.584,172.149  L168.584,172.149z M186.9,168.337h4.354c2.688,0,4.582,0.233,5.679,0.7c1.364,0.583,2.396,1.387,3.089,2.419  c0.694,1.032,1.044,2.256,1.044,3.667c0,1.743-0.519,3.235-1.551,4.483c-1.037,1.247-2.6,2.121-4.692,2.611l5.485,11.233h-4.879  l-5.347-10.948h-0.401l-1.493,10.948h-4.716L186.9,168.337z M190.247,178.376c2.547-0.012,4.208-0.274,4.979-0.793  c0.77-0.514,1.153-1.288,1.153-2.32c0-0.589-0.151-1.084-0.46-1.48c-0.31-0.396-0.758-0.677-1.341-0.834s-1.772-0.239-3.557-0.239  L190.247,178.376z M215.419,168.337h3.977l6.261,25.114h-4.576l-1.335-5.352h-9.939l-2.863,5.352h-5.071L215.419,168.337z   M218.602,183.657l-2.018-8.231l-4.401,8.231H218.602z M226.932,168.337h15.32l-0.548,4.478h-5.206l-2.821,20.637h-4.682  l2.821-20.637h-5.468L226.932,168.337z M256.436,167.708c3.451,0,6.302,1.107,8.547,3.328c2.244,2.222,3.363,5.037,3.363,8.447  c0,2.618-0.665,5.089-1.988,7.403c-1.329,2.314-3.096,4.093-5.299,5.335c-2.204,1.241-4.734,1.859-7.597,1.859  c-3.573,0-6.43-1.062-8.563-3.178c-2.14-2.116-3.206-4.902-3.206-8.359c0-3.93,1.276-7.305,3.83-10.126  C248.368,169.275,252.006,167.708,256.436,167.708L256.436,167.708z M256.25,172.149c-1.802,0-3.445,0.438-4.938,1.307  c-1.486,0.874-2.688,2.122-3.597,3.76c-0.915,1.632-1.37,3.322-1.37,5.061c0,2.063,0.636,3.813,1.901,5.246  c1.265,1.435,3.083,2.151,5.456,2.151c2.746,0,5.084-0.968,7.008-2.903c1.918-1.936,2.88-4.285,2.88-7.054  c0-2.291-0.677-4.122-2.029-5.497C260.208,172.838,258.442,172.149,256.25,172.149z M274.566,168.337h4.355  c2.687,0,4.581,0.233,5.678,0.7c1.364,0.583,2.396,1.387,3.09,2.419c0.693,1.032,1.043,2.256,1.043,3.667  c0,1.743-0.519,3.235-1.551,4.483c-1.037,1.247-2.6,2.121-4.692,2.611l5.485,11.233h-4.879l-5.346-10.948h-0.402l-1.493,10.948  h-4.716L274.566,168.337z M277.913,178.376c2.547-0.012,4.209-0.274,4.979-0.793c0.77-0.514,1.154-1.288,1.154-2.32  c0-0.589-0.152-1.084-0.461-1.48s-0.758-0.677-1.341-0.834s-1.772-0.239-3.556-0.239L277.913,178.376z M290.412,168.337h4.798  l3.882,10.051l7.13-10.051h5.393l-10.65,15.023l-1.394,10.091h-4.717l1.388-10.039L290.412,168.337z"/>
    <path id="path11" fill="#EA570F" d="M69.226,123.596h7.063l-5.865,43.402c-2.059,0.332-4.152,0.521-6.281,0.497l-0.845-0.009  L69.226,123.596z M69.281,176.486l-1.528,10.278h30.045l-0.809,6.608H59.801l2.39-16.66c0.536,0.016,1.077,0.024,1.625,0.024  C65.718,176.737,67.54,176.653,69.281,176.486z"/>
    <path id="path13" fill="#EA570F" d="M99.191,113.314l-4.228,5.831c-7.386-6.932-15.809-10.398-25.252-10.398  c-6.171,0-11.921,1.506-17.281,4.503c-5.362,3.012-9.541,7.062-12.57,12.164c-3.012,5.086-4.519,10.561-4.519,16.424  c0,5.216,1.166,9.864,3.482,13.913c2.332,4.049,5.685,7.224,10.074,9.524c4.391,2.283,9.427,3.433,15.08,3.433  c8.633,0,16.666-2.72,24.134-8.163l3.887,5.556c-5.539,3.58-10.301,5.994-14.302,7.24c-3.984,1.248-8.601,1.879-13.816,1.879  c-9.669,0-17.541-2.413-23.615-7.256c-8.082-6.479-12.115-15.129-12.115-25.948c0-11.159,4.033-20.618,12.115-28.409  c8.066-7.774,18.108-11.662,30.095-11.662c5.49,0,10.464,0.858,14.966,2.575C89.812,106.253,94.445,109.169,99.191,113.314z"/>
</svg>